<svg version="1.1" xmlns="http://www.w3.org/2000/svg" width="32" height="32" viewBox="0 0 500 500">
<path d="M0 0 C2.32694964 0.37531446 4.65976685 0.71917202 7 1 C7.226875 1.763125 7.45375 2.52625 7.6875 3.3125 C8.78832459 6.20546554 8.78832459 6.20546554 11.625 7.5 C12.800625 8.2425 12.800625 8.2425 14 9 C14.3125 11.6875 14.3125 11.6875 14 14 C14.66 14 15.32 14 16 14 C17.4606285 16.64738916 18 17.89448334 18 21 C18.99 21.33 19.98 21.66 21 22 C21.63213182 32.18434604 21.63213182 32.18434604 19.0625 35.5 C18.381875 35.995 17.70125 36.49 17 37 C16.67 37.99 16.34 38.98 16 40 C15.34 40 14.68 40 14 40 C13.87625 40.763125 13.7525 41.52625 13.625 42.3125 C13 45 13 45 11 48 C10.34 47.67 9.68 47.34 9 47 C9 47.99 9 48.98 9 50 C7.37550757 51.70779973 5.70779973 53.37550757 4 55 C3.67 55.66 3.34 56.32 3 57 C2.34 57 1.68 57 1 57 C1 57.66 1 58.32 1 59 C0.34 59.33 -0.32 59.66 -1 60 C-1.433125 60.7425 -1.86625 61.485 -2.3125 62.25 C-4.20560746 65.33506401 -6.31100031 67.58679515 -9 70 C-9.66 70 -10.32 70 -11 70 C-11.33 70.99 -11.66 71.98 -12 73 C-12.66 73 -13.32 73 -14 73 C-14.66 74.98 -15.32 76.96 -16 79 C-16.66 79 -17.32 79 -18 79 C-18.33 80.32 -18.66 81.64 -19 83 C-19.78375 83.0825 -20.5675 83.165 -21.375 83.25 C-24.12283152 83.72323153 -24.12283152 83.72323153 -25.25 85.9375 C-25.4975 86.618125 -25.745 87.29875 -26 88 C-26.33 88.66 -26.66 89.32 -27 90 C-27.66 90 -28.32 90 -29 90 C-29.33 90.99 -29.66 91.98 -30 93 C-30.66 93 -31.32 93 -32 93 C-32 93.66 -32 94.32 -32 95 C-32.66 95 -33.32 95 -34 95 C-34.33 95.99 -34.66 96.98 -35 98 C-35.66 98 -36.32 98 -37 98 C-37.268125 98.763125 -37.53625 99.52625 -37.8125 100.3125 C-38.95134505 102.88988618 -39.81416671 104.26954864 -42 106 C-42.66 106 -43.32 106 -44 106 C-44.103125 106.598125 -44.20625 107.19625 -44.3125 107.8125 C-45.09824033 110.31258286 -45.96918853 111.37535082 -48 113 C-48.66 113 -49.32 113 -50 113 C-50 113.66 -50 114.32 -50 115 C-51.30794331 116.35824882 -52.64900897 117.68456137 -54 119 C-55.56359997 120.85478058 -57.10484397 122.72514438 -58.6328125 124.609375 C-59.30957031 125.29773438 -59.30957031 125.29773438 -60 126 C-60.66 126 -61.32 126 -62 126 C-62.268125 126.639375 -62.53625 127.27875 -62.8125 127.9375 C-64 130 -64 130 -67 131 C-67 132.32 -67 133.64 -67 135 C-68.98 135.99 -68.98 135.99 -71 137 C-71 137.66 -71 138.32 -71 139 C-72.32 139.33 -73.64 139.66 -75 140 C-74.938125 140.763125 -74.87625 141.52625 -74.8125 142.3125 C-75 145 -75 145 -76.375 146.8125 C-78 148 -78 148 -80 148 C-80 152.29 -80 156.58 -80 161 C-79.34 161 -78.68 161 -78 161 C-78 161.99 -78 162.98 -78 164 C-77.38125 164.04125 -76.7625 164.0825 -76.125 164.125 C-75.073125 164.558125 -75.073125 164.558125 -74 165 C-72.75 168.0625 -72.75 168.0625 -72 171 C-71.34 171 -70.68 171 -70 171 C-70 171.66 -70 172.32 -70 173 C-69.29875 173.226875 -68.5975 173.45375 -67.875 173.6875 C-63.90787162 175.49858035 -60.0010918 177.9978164 -58 182 C-57.34 182 -56.68 182 -56 182 C-56 182.66 -56 183.32 -56 184 C-55.34 184 -54.68 184 -54 184 C-54 184.66 -54 185.32 -54 186 C-51.03 186.99 -51.03 186.99 -48 188 C-48 188.66 -48 189.32 -48 190 C-47.34 190 -46.68 190 -46 190 C-46 190.66 -46 191.32 -46 192 C-45.34 192.33 -44.68 192.66 -44 193 C-42 196 -42 196 -42 199 C-41.34 199 -40.68 199 -40 199 C-39.4011085 206.01558615 -38.86189779 212.95678743 -39 220 C-39.66 220 -40.32 220 -41 220 C-41.4125 220.928125 -41.825 221.85625 -42.25 222.8125 C-43.94127947 225.89304474 -45.01084718 227.26436288 -48 229 C-48.66 229 -49.32 229 -50 229 C-50 229.99 -50 230.98 -50 232 C-50.66 232 -51.32 232 -52 232 C-52.37125 233.1446875 -52.37125 233.1446875 -52.75 234.3125 C-54.1387103 237.29822715 -55.14829927 238.40640253 -58 240 C-59.32 240 -60.64 240 -62 240 C-62.33 242.64 -62.66 245.28 -63 248 C-64.32 248.33 -65.64 248.66 -67 249 C-67.103125 249.556875 -67.20625 250.11375 -67.3125 250.6875 C-68.59619167 255.00537198 -70.61350472 257.81730225 -74.125 260.5625 C-77.11149735 262.6077205 -77.11149735 262.6077205 -77.47265625 264.97265625 C-78.15060365 267.57898737 -79.19057457 268.26651691 -81.3125 269.875 C-84.64360475 272.56837798 -86.68615923 275.3749828 -89 279 C-90.66666667 280.66666667 -92.33333333 282.33333333 -94 284 C-94.69748583 285.31747324 -95.36959957 286.64914193 -96 288 C-97.5 289.75 -97.5 289.75 -99 291 C-99.66 291 -100.32 291 -101 291 C-101 291.66 -101 292.32 -101 293 C-101.66 293 -102.32 293 -103 293 C-103.04125 293.721875 -103.0825 294.44375 -103.125 295.1875 C-104.16731746 298.53780613 -105.78037742 299.61068294 -108.51953125 301.6796875 C-110.77025054 303.68692528 -111.68707254 306.31706127 -113 309 C-117.31578947 313 -117.31578947 313 -120 313 C-120 314.32 -120 315.64 -120 317 C-120.66 317 -121.32 317 -122 317 C-122 317.66 -122 318.32 -122 319 C-122.763125 319.433125 -123.52625 319.86625 -124.3125 320.3125 C-127.3444713 322.21629594 -128.4476294 323.81355507 -130 327 C-130 327.66 -130 328.32 -130 329 C-131.3125 330.625 -131.3125 330.625 -133 332 C-133.99 332 -134.98 332 -136 332 C-136 332.66 -136 333.32 -136 334 C-136.66 334 -137.32 334 -138 334 C-138.2475 334.94875 -138.495 335.8975 -138.75 336.875 C-140 340 -140 340 -142.125 341.375 C-142.74375 341.58125 -143.3625 341.7875 -144 342 C-144 342.66 -144 343.32 -144 344 C-144.66 344 -145.32 344 -146 344 C-146 344.66 -146 345.32 -146 346 C-146.66 346 -147.32 346 -148 346 C-148 346.66 -148 347.32 -148 348 C-148.66 348 -149.32 348 -150 348 C-150 348.66 -150 349.32 -150 350 C-159.57894737 347.42105263 -159.57894737 347.42105263 -163 344 C-164.7369119 342.49746657 -166.49145805 341.01693284 -168.24609375 339.53515625 C-170 338 -170 338 -171.59375 336.3359375 C-172.93852398 334.82505563 -172.93852398 334.82505563 -175.0625 334.5625 C-175.701875 334.376875 -176.34125 334.19125 -177 334 C-178.0625 332.0625 -178.0625 332.0625 -179 330 C-179.99 329.34 -180.98 328.68 -182 328 C-182.67904468 324.60477658 -183 321.46006569 -183 318 C-181.68 318 -180.36 318 -179 318 C-179 317.01 -179 316.02 -179 315 C-178.34 315 -177.68 315 -177 315 C-176.67 312.69 -176.34 310.38 -176 308 C-175.34 308 -174.68 308 -174 308 C-174 307.01 -174 306.02 -174 305 C-173.34 305 -172.68 305 -172 305 C-171.67 302.69 -171.34 300.38 -171 298 C-170.34 298 -169.68 298 -169 298 C-169 297.01 -169 296.02 -169 295 C-168.34 295 -167.68 295 -167 295 C-166.67 292.69 -166.34 290.38 -166 288 C-165.34 288 -164.68 288 -164 288 C-164 287.01 -164 286.02 -164 285 C-163.34 285 -162.68 285 -162 285 C-162 284.34 -162 283.68 -162 283 C-162.66 283 -163.32 283 -164 283 C-163 280 -163 280 -162 279 C-162.66 278.67 -163.32 278.34 -164 278 C-164.24105469 278.89074219 -164.48210937 279.78148437 -164.73046875 280.69921875 C-166.11147621 284.28983816 -167.59121612 286.12780481 -170.3125 288.8125 C-171.07175781 289.58207031 -171.83101562 290.35164063 -172.61328125 291.14453125 C-175.19162418 293.14897134 -176.81626012 293.559009 -180 294 C-181.90684492 295.48310161 -182.85894037 296.71788074 -183.9375 298.875 C-185.30991896 301.61983793 -186.92435461 303.74120943 -189 306 C-191.1875 306.6875 -191.1875 306.6875 -193 307 C-193.33 307.66 -193.66 308.32 -194 309 C-194.66 308.67 -195.32 308.34 -196 308 C-196.33 308.99 -196.66 309.98 -197 311 C-204.53828658 310.38210766 -204.53828658 310.38210766 -206.8125 308.5 C-207.4003125 307.7575 -207.4003125 307.7575 -208 307 C-208.99 306.67 -209.98 306.34 -211 306 C-211 305.34 -211 304.68 -211 304 C-211.8971875 303.5978125 -211.8971875 303.5978125 -212.8125 303.1875 C-216.31088537 301.28837651 -217.73345454 299.79963639 -219 296 C-220.76774389 294.94522076 -220.76774389 294.94522076 -222.875 294.125 C-226.71252296 292.35278691 -227.94497948 290.71860856 -230 287 C-232.45704762 285.76709799 -232.45704762 285.76709799 -235 285 C-235.99 284.34 -236.98 283.68 -238 283 C-238 282.34 -238 281.68 -238 281 C-238.66 281 -239.32 281 -240 281 C-240.495 279.515 -240.495 279.515 -241 278 C-241.66 277.67 -242.32 277.34 -243 277 C-243 276.34 -243 275.68 -243 275 C-243.99 275.33 -244.98 275.66 -246 276 C-246.598125 275.236875 -247.19625 274.47375 -247.8125 273.6875 C-251.05766082 269.5222339 -251.05766082 269.5222339 -255.5625 267.0625 C-258 266 -258 266 -259.25 264.375 C-260.33394983 260.94249221 -260.64184413 257.58155868 -261 254 C-260.34 253.67 -259.68 253.34 -259 253 C-258.34786708 250.97536745 -258.34786708 250.97536745 -258 249 C-257.01 249 -256.02 249 -255 249 C-255.66 247.02 -256.32 245.04 -257 243 C-260.37088267 245.27415287 -260.37088267 245.27415287 -262 249 C-262.66 249 -263.32 249 -264 249 C-264 249.66 -264 250.32 -264 251 C-273.24454148 252.59388646 -273.24454148 252.59388646 -278 250 C-279.12248888 248.2576292 -280.01551276 246.46845304 -280.9296875 244.609375 C-282.64852117 242.02485138 -285.1092742 241.75410238 -288 241 C-290 238 -290 238 -290 235 C-292.97411124 233.76078698 -295.85262818 232.69941596 -299 232 C-299 231.34 -299 230.68 -299 230 C-299.66 230 -300.32 230 -301 230 C-301.02705729 228.22925083 -301.04642195 226.45838289 -301.0625 224.6875 C-301.07410156 223.70136719 -301.08570313 222.71523438 -301.09765625 221.69921875 C-301 219 -301 219 -300 216 C-299.34 216 -298.68 216 -298 216 C-298 215.34 -298 214.68 -298 214 C-297.34 214 -296.68 214 -296 214 C-295.938125 213.21625 -295.87625 212.4325 -295.8125 211.625 C-295.544375 210.75875 -295.27625 209.8925 -295 209 C-292.4375 207.6875 -292.4375 207.6875 -290 207 C-290 206.01 -290 205.02 -290 204 C-289.34 204 -288.68 204 -288 204 C-288 203.34 -288 202.68 -288 202 C-287.01 201.01 -287.01 201.01 -286 200 C-285.30251417 198.68252676 -284.63040043 197.35085807 -284 196 C-283.34 196 -282.68 196 -282 196 C-280.3703727 193.49881715 -278.97337595 190.90043556 -277.53515625 188.28515625 C-276 186 -276 186 -273 185 C-272.67 184.34 -272.34 183.68 -272 183 C-271.34 183 -270.68 183 -270 183 C-270.33 182.01 -270.66 181.02 -271 180 C-270.4225 179.52949219 -269.845 179.05898438 -269.25 178.57421875 C-268.13625 177.64029297 -268.13625 177.64029297 -267 176.6875 C-266.2575 176.07261719 -265.515 175.45773438 -264.75 174.82421875 C-262.65386277 173.06049937 -262.65386277 173.06049937 -263 170 C-262.34 170 -261.68 170 -261 170 C-260.7525 169.360625 -260.505 168.72125 -260.25 168.0625 C-259 166 -259 166 -256.875 165.25 C-256.25625 165.1675 -255.6375 165.085 -255 165 C-255 164.34 -255 163.68 -255 163 C-254.34 163 -253.68 163 -253 163 C-253.0825 162.236875 -253.165 161.47375 -253.25 160.6875 C-253 158 -253 158 -251.125 156.1875 C-249 155 -249 155 -247 155 C-246.773125 154.278125 -246.54625 153.55625 -246.3125 152.8125 C-244.27302197 148.44218994 -240.8039512 145.74786158 -237.3125 142.5 C-234.89867183 140.2173506 -234.89867183 140.2173506 -234.125 137.5625 C-232.66032744 134.22630139 -230.51184755 132.71139188 -227.65625 130.52734375 C-225.79643372 128.81227732 -225.07026606 127.274857 -224 125 C-223.06405756 123.71731566 -222.08360969 122.46597795 -221.0625 121.25 C-220.55847656 120.63640625 -220.05445313 120.0228125 -219.53515625 119.390625 C-218 118 -218 118 -215 118 C-215 117.34 -215 116.68 -215 116 C-214.34 116 -213.68 116 -213 116 C-213 115.01 -213 114.02 -213 113 C-212.34 113 -211.68 113 -211 113 C-210.01 110.69 -209.02 108.38 -208 106 C-207.34 106 -206.68 106 -206 106 C-205.01 104.02 -205.01 104.02 -204 102 C-203.34 102 -202.68 102 -202 102 C-202 101.34 -202 100.68 -202 100 C-201.34 100 -200.68 100 -200 100 C-199.505 98.515 -199.505 98.515 -199 97 C-198.34 97 -197.68 97 -197 97 C-196.731875 96.360625 -196.46375 95.72125 -196.1875 95.0625 C-195 93 -195 93 -192 92 C-192 91.34 -192 90.68 -192 90 C-188.63746518 86.63746518 -184.22561636 87.23619926 -179.64453125 86.953125 C-174.80725559 87.01534076 -171.41723175 88.0960208 -167 90 C-167 90.66 -167 91.32 -167 92 C-165.35 92 -163.7 92 -162 92 C-162 92.66 -162 93.32 -162 94 C-161.34 94 -160.68 94 -160 94 C-160 94.66 -160 95.32 -160 96 C-158.68 96.66 -157.36 97.32 -156 98 C-156 98.66 -156 99.32 -156 100 C-155.34 100 -154.68 100 -154 100 C-152.375 101.375 -152.375 101.375 -151 103 C-151 103.66 -151 104.32 -151 105 C-150.29875 105.268125 -149.5975 105.53625 -148.875 105.8125 C-145.8350176 107.0681449 -142.9272226 108.50235123 -140 110 C-140 110.66 -140 111.32 -140 112 C-138.35 112.33 -136.7 112.66 -135 113 C-134.67 113.99 -134.34 114.98 -134 116 C-132.63875 115.690625 -132.63875 115.690625 -131.25 115.375 C-127.73659735 114.96960739 -126.97166306 115.41511304 -124 117 C-121.82676431 116.85318539 -121.82676431 116.85318539 -120 116 C-119.67 115.34 -119.34 114.68 -119 114 C-118.34 114 -117.68 114 -117 114 C-116.731875 113.360625 -116.46375 112.72125 -116.1875 112.0625 C-115 110 -115 110 -112 109 C-112 108.34 -112 107.68 -112 107 C-110.51766563 105.78119174 -109.03276806 104.56517075 -107.52734375 103.375 C-105.49268277 101.54328475 -104.34871981 99.36025966 -103 97 C-102.34 97 -101.68 97 -101 97 C-100.67 95.68 -100.34 94.36 -100 93 C-99.34 93 -98.68 93 -98 93 C-98 92.01 -98 91.02 -98 90 C-97.34 90 -96.68 90 -96 90 C-95.690625 89.38125 -95.38125 88.7625 -95.0625 88.125 C-94.375 86.75 -93.6875 85.375 -93 84 C-92.34 84 -91.68 84 -91 84 C-90.67 82.35 -90.34 80.7 -90 79 C-88.68 78.67 -87.36 78.34 -86 78 C-85.7834375 77.1028125 -85.7834375 77.1028125 -85.5625 76.1875 C-85.1127561 74.43849596 -84.57107659 72.71322977 -84 71 C-83.01 71 -82.02 71 -81 71 C-80.773125 70.13375 -80.54625 69.2675 -80.3125 68.375 C-78.639267 64.07240086 -76.27675521 60.13837761 -72 58 C-70.86649466 55.98330173 -70.86649466 55.98330173 -70 54 C-69.34 54 -68.68 54 -68 54 C-67.67 52.68 -67.34 51.36 -67 50 C-66.34 50 -65.68 50 -65 50 C-65 49.01 -65 48.02 -65 47 C-64.34 47 -63.68 47 -63 47 C-62.67 46.01 -62.34 45.02 -62 44 C-61.34 44 -60.68 44 -60 44 C-59.71125 43.2575 -59.4225 42.515 -59.125 41.75 C-58.17697356 39.43260203 -57.15154089 37.22082885 -56 35 C-55.01 35 -54.02 35 -53 35 C-52.67 33.68 -52.34 32.36 -52 31 C-51.34 31 -50.68 31 -50 31 C-50.33 30.01 -50.66 29.02 -51 28 C-50.01 27.67 -49.02 27.34 -48 27 C-47.67 26.01 -47.34 25.02 -47 24 C-46.34 24 -45.68 24 -45 24 C-44.67 22.68 -44.34 21.36 -44 20 C-43.34 20 -42.68 20 -42 20 C-41.34 18.68 -40.68 17.36 -40 16 C-39.34 16 -38.68 16 -38 16 C-37.67 14.35 -37.34 12.7 -37 11 C-36.34 11 -35.68 11 -35 11 C-34.5978125 10.0409375 -34.5978125 10.0409375 -34.1875 9.0625 C-33 7 -33 7 -30 6 C-30 5.34 -30 4.68 -30 4 C-27.09451118 1.95830515 -25.59857954 1 -22 1 C-22 0.34 -22 -0.32 -22 -1 C-14.47774856 -2.70032808 -7.23763819 -2.79636021 0 0 Z M-14 19 C-14 19.66 -14 20.32 -14 21 C-14.66 21 -15.32 21 -16 21 C-16 21.99 -16 22.98 -16 24 C-16.99 24.495 -16.99 24.495 -18 25 C-17.34 28.63 -16.68 32.26 -16 36 C-15.67 35.34 -15.34 34.68 -15 34 C-13.02 34 -11.04 34 -9 34 C-8.67 34.66 -8.34 35.32 -8 36 C-8 35.01 -8 34.02 -8 33 C-7.01 33.33 -6.02 33.66 -5 34 C-3.41109693 30.82219386 -3.59499369 27.4603171 -4 24 C-5.18895236 22.05967596 -5.18895236 22.05967596 -7 21 C-7.99 20.34 -8.98 19.68 -10 19 C-11.32 19 -12.64 19 -14 19 Z M-170 149 C-169 151 -169 151 -169 151 Z M-168 151 C-168 151.66 -168 152.32 -168 153 C-167.34 152.67 -166.68 152.34 -166 152 C-166.66 151.67 -167.32 151.34 -168 151 Z M-158 159 C-157 161 -157 161 -157 161 Z M-156 161 C-155 163 -155 163 -155 163 Z M-146 169 C-145.67 169.66 -145.34 170.32 -145 171 C-144.67 170.34 -144.34 169.68 -144 169 C-144.66 169 -145.32 169 -146 169 Z M-126 186 C-125.67 186.99 -125.34 187.98 -125 189 C-124.34 188.34 -123.68 187.68 -123 187 C-123.99 186.67 -124.98 186.34 -126 186 Z M-108 202 C-107.67 202.66 -107.34 203.32 -107 204 C-106.34 203.67 -105.68 203.34 -105 203 C-105.99 202.67 -106.98 202.34 -108 202 Z M-105 204 C-104 206 -104 206 -104 206 Z M-95 212 C-94 214 -94 214 -94 214 Z M-87 219 C-87 219.66 -87 220.32 -87 221 C-85.68 221.33 -84.36 221.66 -83 222 C-83 221.34 -83 220.68 -83 220 C-84.32 219.67 -85.64 219.34 -87 219 Z M-77 227 C-76 229 -76 229 -76 229 Z M-65 237 C-65 237.66 -65 238.32 -65 239 C-64.34 238.67 -63.68 238.34 -63 238 C-63.66 237.67 -64.32 237.34 -65 237 Z M-256 241 C-255.01 242.32 -254.02 243.64 -253 245 C-253.33 243.68 -253.66 242.36 -254 241 C-254.66 241 -255.32 241 -256 241 Z M-161 276 C-160.34 276.66 -159.68 277.32 -159 278 C-159 277.34 -159 276.68 -159 276 C-159.66 276 -160.32 276 -161 276 Z " fill="#000000" transform="translate(392,78)"/>
<path d="M0 0 C0.66 0 1.32 0 2 0 C2 0.66 2 1.32 2 2 C1.34 2 0.68 2 0 2 C0 1.34 0 0.68 0 0 Z " fill="#000000" transform="translate(134,324)"/>
<path d="M0 0 C0.66 0 1.32 0 2 0 C2 0.66 2 1.32 2 2 C1.34 2 0.68 2 0 2 C0 1.34 0 0.68 0 0 Z " fill="#000000" transform="translate(331,319)"/>
<path d="" fill="#000000" transform="translate(0,0)"/>
<path d="M0 0 C2 1 2 1 2 1 Z " fill="#000000" transform="translate(313,237)"/>
<path d="M0 0 C2 1 2 1 2 1 Z " fill="#000000" transform="translate(313,227)"/>
<path d="M0 0 C2 1 2 1 2 1 Z " fill="#000000" transform="translate(217,164)"/>
<path d="M0 0 C2 1 2 1 2 1 Z " fill="#000000" transform="translate(207,164)"/>
<path d="M0 0 C2 1 2 1 2 1 Z " fill="#000000" transform="translate(387,75)"/>
<path d="" fill="#000000" transform="translate(0,0)"/>
<path d="" fill="#000000" transform="translate(0,0)"/>
<path d="" fill="#000000" transform="translate(0,0)"/>
<path d="" fill="#000000" transform="translate(0,0)"/>
<path d="" fill="#000000" transform="translate(0,0)"/>
<path d="" fill="#000000" transform="translate(0,0)"/>
</svg>
