<?xml version="1.0" encoding="UTF-8"?>
<svg version="1.1" xmlns="http://www.w3.org/2000/svg" width="500" height="500">
<path d="M0 0 C1.04994141 -0.01836914 1.04994141 -0.01836914 2.12109375 -0.03710938 C6.87513965 -0.05033956 10.80862329 0.73179446 15.375 2.1875 C17.70287927 2.55700465 20.03545145 2.90102467 22.375 3.1875 C22.375 3.8475 22.375 4.5075 22.375 5.1875 C24.0146875 5.4040625 24.0146875 5.4040625 25.6875 5.625 C29.375 6.1875 29.375 6.1875 32.375 7.1875 C32.375 7.8475 32.375 8.5075 32.375 9.1875 C33.303125 9.455625 34.23125 9.72375 35.1875 10 C38.13281025 11.09727245 39.52517877 11.72107169 41.375 14.1875 C41.375 14.8475 41.375 15.5075 41.375 16.1875 C42.365 16.1875 43.355 16.1875 44.375 16.1875 C44.375 16.8475 44.375 17.5075 44.375 18.1875 C46.025 18.8475 47.675 19.5075 49.375 20.1875 C49.375 21.1775 49.375 22.1675 49.375 23.1875 C50.86 23.6825 50.86 23.6825 52.375 24.1875 C52.375 24.8475 52.375 25.5075 52.375 26.1875 C53.86 26.6825 53.86 26.6825 55.375 27.1875 C55.375 27.8475 55.375 28.5075 55.375 29.1875 C56.035 29.5175 56.695 29.8475 57.375 30.1875 C58.2265625 32.25390625 58.2265625 32.25390625 59 34.75 C59.26039063 35.57628906 59.52078125 36.40257812 59.7890625 37.25390625 C60.07910156 38.21103516 60.07910156 38.21103516 60.375 39.1875 C61.035 39.1875 61.695 39.1875 62.375 39.1875 C63.42984762 41.64881111 64.32624654 43.92283836 64.8125 46.5625 C65.28643834 49.34190486 65.28643834 49.34190486 66.9375 52.1875 C68.97485404 56.66574197 68.55667479 61.1763299 68.3828125 66.00390625 C68.28296573 69.14318129 68.28296573 69.14318129 68.86657524 72.01577377 C69.36330562 75.11454651 69.50080931 77.98368652 69.50198364 81.11871338 C69.50480347 82.28207718 69.50762329 83.44544098 69.51052856 84.64405823 C69.50749222 86.53776405 69.50749222 86.53776405 69.50439453 88.46972656 C69.50575083 89.82382759 69.50753204 91.17792824 69.50970459 92.5320282 C69.5142535 96.19959198 69.51249936 99.86712755 69.5093255 103.53469181 C69.5067867 107.38305294 69.50914387 111.23141172 69.51071167 115.07977295 C69.5125298 121.54586214 69.51013731 128.01193989 69.50537109 134.47802734 C69.49993837 141.93401962 69.50168536 149.38998451 69.5071975 156.84597611 C69.51174979 163.26233854 69.51236857 169.67869277 69.50975883 176.0950563 C69.50820649 179.92049466 69.50797335 183.7459202 69.51129532 187.57135773 C69.51420452 191.17304565 69.51214283 194.77469864 69.50640106 198.37638283 C69.50446819 200.31386391 69.50740198 202.25134799 69.51052856 204.18882751 C69.49607657 210.20903866 69.31383112 216.10650474 68.58843803 222.08575058 C68.24673387 225.4505517 68.39705219 228.7448803 68.5 232.125 C68.60658658 238.05808563 67.9474135 243.22230291 66.03125 248.85546875 C65.31601099 251.39712166 65.33513474 253.56082204 65.375 256.1875 C64.70833333 257.52083333 64.04166667 258.85416667 63.375 260.1875 C62.98750787 262.51245277 62.64517161 264.84601268 62.375 267.1875 C61.715 267.1875 61.055 267.1875 60.375 267.1875 C60.601875 267.765 60.82875 268.3425 61.0625 268.9375 C61.375 271.1875 61.375 271.1875 60 273.125 C59.46375 273.805625 58.9275 274.48625 58.375 275.1875 C58.01886903 276.84944453 57.68291692 278.515951 57.375 280.1875 C56.715 280.8475 56.055 281.5075 55.375 282.1875 C54.7324765 284.25624034 54.7324765 284.25624034 54.375 286.1875 C53.715 286.1875 53.055 286.1875 52.375 286.1875 C52.375 287.5075 52.375 288.8275 52.375 290.1875 C51.715 290.1875 51.055 290.1875 50.375 290.1875 C50.045 291.8375 49.715 293.4875 49.375 295.1875 C48.715 295.1875 48.055 295.1875 47.375 295.1875 C47.375 296.1775 47.375 297.1675 47.375 298.1875 C46.715 298.1875 46.055 298.1875 45.375 298.1875 C44.9109375 299.363125 44.9109375 299.363125 44.4375 300.5625 C43.375 303.1875 43.375 303.1875 42.375 305.1875 C41.715 305.1875 41.055 305.1875 40.375 305.1875 C40.25125 305.80625 40.1275 306.425 40 307.0625 C39.375 309.1875 39.375 309.1875 37.375 311.1875 C36.47560971 312.26788214 35.58020109 313.35158415 34.6875 314.4375 C31.18867062 318.54669028 27.25237345 322.74881328 22.375 325.1875 C22.375 325.8475 22.375 326.5075 22.375 327.1875 C21.75625 327.27 21.1375 327.3525 20.5 327.4375 C18.19153196 327.97560733 18.19153196 327.97560733 17.375 330.1875 C16.375 332.1875 16.375 332.1875 14.25 332.9375 C13.63125 333.02 13.0125 333.1025 12.375 333.1875 C12.375 333.8475 12.375 334.5075 12.375 335.1875 C9.46807326 336.67476484 6.61912851 338.09527367 3.5625 339.25 C1.20984431 339.97952617 1.20984431 339.97952617 0.375 342.1875 C-0.95833333 342.52083333 -2.29166667 342.85416667 -3.625 343.1875 C-3.955 343.8475 -4.285 344.5075 -4.625 345.1875 C-6.4375 346.1875 -6.4375 346.1875 -8.625 347.1875 C-9.223125 347.496875 -9.82125 347.80625 -10.4375 348.125 C-16.13122014 350.89052121 -21.23529572 353.1875 -27.625 353.1875 C-27.625 353.8475 -27.625 354.5075 -27.625 355.1875 C-28.305625 355.125625 -28.98625 355.06375 -29.6875 355 C-32.79918172 355.03111351 -32.79918172 355.03111351 -36.0625 356.6875 C-39.72423092 358.22928144 -41.73386253 358.26856536 -45.625 358.1875 C-46.67816406 358.52394531 -47.73132813 358.86039062 -48.81640625 359.20703125 C-53.02158705 360.28959574 -56.25172607 360.19398442 -60.5625 359.8125 C-61.24634766 359.75578125 -61.93019531 359.6990625 -62.63476562 359.640625 C-64.29917046 359.50095466 -65.96226886 359.34585535 -67.625 359.1875 C-67.79827821 321.58102612 -67.96093211 283.97452062 -68.10931293 246.36793997 C-68.12683488 241.92937504 -68.14444491 237.49081046 -68.16210938 233.05224609 C-68.16562461 232.16859798 -68.16913985 231.28494987 -68.1727616 230.37452455 C-68.22990962 216.06166063 -68.29419438 201.7488372 -68.361111 187.43601601 C-68.42960146 172.75263219 -68.49043552 158.0692311 -68.54414403 143.3857857 C-68.57753394 134.32339764 -68.6169144 125.26107609 -68.66392837 116.19874831 C-68.69558429 109.98660041 -68.7198114 103.77445138 -68.73817255 97.56225006 C-68.74899024 93.97673586 -68.76310634 90.39131374 -68.78603554 86.8058548 C-68.81080436 82.91935399 -68.81994176 79.03290613 -68.82754517 75.14633179 C-68.8372618 74.01208814 -68.84697843 72.87784449 -68.8569895 71.70922983 C-68.85445814 66.41488689 -68.62849248 62.16647235 -66.625 57.1875 C-66.645625 56.176875 -66.66625 55.16625 -66.6875 54.125 C-66.61172075 50.56337511 -65.48111686 49.18584262 -63.625 46.1875 C-63.17698653 44.20344036 -62.72916061 42.21933567 -62.28515625 40.234375 C-61.349347 37.33281259 -59.72232818 35.25081438 -57.8671875 32.86328125 C-56.09684384 30.47498745 -54.87130504 27.87689509 -53.625 25.1875 C-52.965 25.1875 -52.305 25.1875 -51.625 25.1875 C-51.295 24.1975 -50.965 23.2075 -50.625 22.1875 C-49.965 22.1875 -49.305 22.1875 -48.625 22.1875 C-48.625 21.5275 -48.625 20.8675 -48.625 20.1875 C-47.965 20.1875 -47.305 20.1875 -46.625 20.1875 C-46.295 19.1975 -45.965 18.2075 -45.625 17.1875 C-44.965 17.1875 -44.305 17.1875 -43.625 17.1875 C-43.295 16.5275 -42.965 15.8675 -42.625 15.1875 C-34.83185883 7.59944149 -23.18205266 2.93019737 -12.4375 1.6875 C-8.03899776 1.11064725 -4.67740181 0.00416881 0 0 Z " fill="#FCFCFB" transform="translate(264.625,73.8125)"/>
<path d="M0 0 C0 0.66 0 1.32 0 2 C1.423125 1.938125 1.423125 1.938125 2.875 1.875 C6 2 6 2 8 4 C10.06874034 4.6425235 10.06874034 4.6425235 12 5 C12 5.66 12 6.32 12 7 C12.63808594 7.19335938 13.27617187 7.38671875 13.93359375 7.5859375 C14.75988281 7.84632813 15.58617187 8.10671875 16.4375 8.375 C17.26121094 8.63023437 18.08492188 8.88546875 18.93359375 9.1484375 C21 10 21 10 22 12 C22.99 12.33 23.98 12.66 25 13 C25.66666667 14.66666667 26.33333333 16.33333333 27 18 C28.485 18.495 28.485 18.495 30 19 C30 19.66 30 20.32 30 21 C31.485 21.495 31.485 21.495 33 22 C33.495 23.485 33.495 23.485 34 25 C34.66 25 35.32 25 36 25 C36 25.99 36 26.98 36 28 C36.66 28.33 37.32 28.66 38 29 C38.495 30.485 38.495 30.485 39 32 C39.66 32.33 40.32 32.66 41 33 C41.69040574 34.65697379 42.3530635 36.3255761 43 38 C43.515625 38.825 44.03125 39.65 44.5625 40.5 C46.07025833 43.12218841 46.56482614 45.02631193 47 48 C47.5019067 51.13691685 47.99410758 53.98232275 49 57 C49.22828965 60.24593348 49.18516297 63.49685728 49.1875 66.75 C49.19974609 67.63171875 49.21199219 68.5134375 49.22460938 69.421875 C49.23640601 74.70676855 48.70126933 78.99738274 47 84 C46.67 85.216875 46.34 86.43375 46 87.6875 C45.18143047 90.39901157 44.31445525 92.5257313 43 95 C42.525625 96.175625 42.05125 97.35125 41.5625 98.5625 C40.18532241 101.59229071 39.35005724 102.85429557 37 105 C35.82425289 107.09989652 35.82425289 107.09989652 35 109 C34.34 109 33.68 109 33 109 C33 109.66 33 110.32 33 111 C31.34211215 112.34423339 29.67423683 113.67618483 28 115 C27.46375 115.7425 26.9275 116.485 26.375 117.25 C25.92125 117.8275 25.4675 118.405 25 119 C24.01 119 23.02 119 22 119 C21.67 119.66 21.34 120.32 21 121 C9.02684943 130.83508797 -5.93604179 134.17490551 -21.125 134.1875 C-21.91003906 134.19974609 -22.69507812 134.21199219 -23.50390625 134.22460938 C-27.83954346 134.23557642 -31.02007552 133.89901333 -35 132 C-36.010625 131.835 -37.02125 131.67 -38.0625 131.5 C-40.86061843 131.02372452 -42.5298228 130.31228164 -45 129 C-45.99 128.690625 -46.98 128.38125 -48 128.0625 C-50.91822729 127.02896117 -52.64685472 125.9609544 -55 124 C-57.28710714 122.24655119 -59.55137259 120.65539213 -62 119.125 C-64.98886135 117.00788988 -66.80634293 114.89876112 -69 112 C-69.66 111.67 -70.32 111.34 -71 111 C-71 110.34 -71 109.68 -71 109 C-71.66 108.67 -72.32 108.34 -73 108 C-74.09045225 106.55642203 -75.12592682 105.07076266 -76.125 103.5625 C-76.93324219 102.35787109 -76.93324219 102.35787109 -77.7578125 101.12890625 C-79 99 -79 99 -79 97 C-79.66 96.34 -80.32 95.68 -81 95 C-81.69437747 93.00945124 -82.35610218 91.00744615 -83 89 C-83.53625 87.88625 -84.0725 86.7725 -84.625 85.625 C-86.25758069 81.32092363 -86.14971114 78.56618972 -86 74 C-86.165 73.34 -86.33 72.68 -86.5 72 C-89.07814844 61.68740625 -85.75381432 49.58004695 -82 40 C-81.690625 39.13375 -81.38125 38.2675 -81.0625 37.375 C-79.69816261 34.32530466 -77.90347868 31.74324868 -76 29 C-75.360625 27.989375 -74.72125 26.97875 -74.0625 25.9375 C-71.94459376 22.92108808 -69.74507375 20.45611861 -67 18 C-66.34 18 -65.68 18 -65 18 C-64.67 17.01 -64.34 16.02 -64 15 C-62.625 13.3125 -62.625 13.3125 -61 12 C-60.01 12 -59.02 12 -58 12 C-58 11.34 -58 10.68 -58 10 C-57.01 10 -56.02 10 -55 10 C-55 9.34 -55 8.68 -55 8 C-54.01 8 -53.02 8 -52 8 C-51.67 7.34 -51.34 6.68 -51 6 C-49.07421875 4.9296875 -49.07421875 4.9296875 -46.6875 3.875 C-45.90761719 3.52179688 -45.12773438 3.16859375 -44.32421875 2.8046875 C-42 2 -42 2 -38 2 C-38 1.34 -38 0.68 -38 0 C-24.95600259 -2.3412303 -13.04399741 -2.3412303 0 0 Z " fill="#FBFBFB" transform="translate(131,300)"/>
<path d="M0 0 C1.89551022 -0.05441656 3.7914792 -0.09298035 5.6875 -0.125 C6.74324219 -0.14820313 7.79898438 -0.17140625 8.88671875 -0.1953125 C12.05160659 0.00323755 14.12893352 0.72018562 17 2 C18.99673484 2.35236497 20.99650739 2.68834559 23 3 C23.99 3.495 23.99 3.495 25 4 C25 4.66 25 5.32 25 6 C25.99 5.67 26.98 5.34 28 5 C28.556875 5.6496875 28.556875 5.6496875 29.125 6.3125 C31.00350813 8.16824983 31.00350813 8.16824983 33.8125 9.3125 C37.77941548 11.41263172 40.04458045 13.62237765 43 17 C43 17.99 43 18.98 43 20 C44.485 20.495 44.485 20.495 46 21 C46 21.99 46 22.98 46 24 C46.66 24.33 47.32 24.66 48 25 C48.625 27.5625 48.625 27.5625 49 30 C49.66 30 50.32 30 51 30 C52.125 33.75 52.125 33.75 51 36 C51.66 36 52.32 36 53 36 C54.69992856 46.66568081 55.24329556 56.92217304 51 67 C50.34 67 49.68 67 49 67 C48.67 68.98 48.34 70.96 48 73 C47.34 73 46.68 73 46 73 C45.5359375 74.175625 45.5359375 74.175625 45.0625 75.375 C44 78 44 78 43 80 C42.34 80 41.68 80 41 80 C40.505 81.485 40.505 81.485 40 83 C39.34 83 38.68 83 38 83 C37.505 84.485 37.505 84.485 37 86 C35.70264493 87.04625409 34.36733028 88.04701223 33 89 C32.34 89.66 31.68 90.32 31 91 C29.989375 91.165 28.97875 91.33 27.9375 91.5 C26.968125 91.665 25.99875 91.83 25 92 C24.67 92.66 24.34 93.32 24 94 C21.68529088 94.72870472 19.3494053 95.39239518 17 96 C16.01 96.33 15.02 96.66 14 97 C10.87936425 97.25074502 7.75468234 97.23120311 4.625 97.25 C3.77421875 97.270625 2.9234375 97.29125 2.046875 97.3125 C-2.87365627 97.34315752 -5.93022769 97.05625758 -10 94 C-11.32303717 93.6278958 -12.65737935 93.29369827 -14 93 C-15.6744239 92.3530635 -17.34302621 91.69040574 -19 91 C-19 90.34 -19 89.68 -19 89 C-19.928125 88.814375 -19.928125 88.814375 -20.875 88.625 C-23 88 -23 88 -25 86 C-25.70125 85.505 -26.4025 85.01 -27.125 84.5 C-27.74375 84.005 -28.3625 83.51 -29 83 C-29 82.34 -29 81.68 -29 81 C-29.66 81 -30.32 81 -31 81 C-31 80.01 -31 79.02 -31 78 C-31.66 78 -32.32 78 -33 78 C-33 77.34 -33 76.68 -33 76 C-33.66 75.67 -34.32 75.34 -35 75 C-35.66666667 73.33333333 -36.33333333 71.66666667 -37 70 C-37.66 69.67 -38.32 69.34 -39 69 C-40.09036928 66.0262656 -40.03864166 65.11592499 -39 62 C-39.66 62 -40.32 62 -41 62 C-43.17586402 50.7491909 -43.49106705 39.25864891 -38 29 C-37.6184375 28.21496094 -37.236875 27.42992187 -36.84375 26.62109375 C-35.92442847 24.73320132 -34.96658821 22.86413441 -34 21 C-33.34 21 -32.68 21 -32 21 C-32 20.01 -32 19.02 -32 18 C-30.57921133 16.74441932 -29.14826109 15.49708687 -27.65234375 14.33203125 C-25.75970808 12.86008849 -25.75970808 12.86008849 -23.375 10.3125 C-21.24521634 8.23876328 -19.70506715 7.11933813 -17 6 C-16.34 5.67 -15.68 5.34 -15 5 C-14.34 5.33 -13.68 5.66 -13 6 C-13 5.34 -13 4.68 -13 4 C-9.35197297 2.39057631 -5.96921614 1.44102402 -2 1 C-1.34 1.33 -0.68 1.66 0 2 C0 1.34 0 0.68 0 0 Z " fill="#FAFAFA" transform="translate(404,212)"/>
<path d="M0 0 C0.71607422 -0.01224609 1.43214844 -0.02449219 2.16992188 -0.03710938 C6.02809957 -0.04783647 8.75039178 0.18643462 12.0625 2.1875 C13.5784375 2.435 13.5784375 2.435 15.125 2.6875 C18.0625 3.1875 18.0625 3.1875 21.0625 5.1875 C22.0525 5.5175 23.0425 5.8475 24.0625 6.1875 C24.0625 6.8475 24.0625 7.5075 24.0625 8.1875 C25.0525 8.1875 26.0425 8.1875 27.0625 8.1875 C27.0625 8.8475 27.0625 9.5075 27.0625 10.1875 C27.619375 10.22875 28.17625 10.27 28.75 10.3125 C32.23543296 11.63131247 33.78991349 14.3168644 36.0625 17.1875 C36.7225 17.5175 37.3825 17.8475 38.0625 18.1875 C38.0625 19.1775 38.0625 20.1675 38.0625 21.1875 C39.5475 21.6825 39.5475 21.6825 41.0625 22.1875 C41.0625 22.8475 41.0625 23.5075 41.0625 24.1875 C41.7225 24.5175 42.3825 24.8475 43.0625 25.1875 C43.4074145 26.51788449 43.73766582 27.85207061 44.0625 29.1875 C44.5575 30.095 45.0525 31.0025 45.5625 31.9375 C49.26722143 39.96439642 49.5762518 52.08086742 47.08984375 60.46875 C46.58130859 61.81453125 46.58130859 61.81453125 46.0625 63.1875 C45.71273242 64.51661682 45.37153983 65.84832739 45.0625 67.1875 C44.4025 67.1875 43.7425 67.1875 43.0625 67.1875 C42.93875 67.93 42.815 68.6725 42.6875 69.4375 C41.26617671 75.69132246 37.49178497 78.75821503 33.0625 83.1875 C32.5675 83.703125 32.0725 84.21875 31.5625 84.75 C27.99454509 88.16929012 24.7189246 90.51596296 20.0625 92.1875 C18.03730218 93.16941409 16.07153159 94.18225585 14.125 95.3125 C11.63197643 96.37014636 9.7521132 96.25474033 7.0625 96.1875 C6.45921875 96.34992188 5.8559375 96.51234375 5.234375 96.6796875 C2.69833435 97.27264664 0.4140034 97.28423031 -2.1875 97.25 C-3.52554688 97.23646484 -3.52554688 97.23646484 -4.890625 97.22265625 C-5.56609375 97.21105469 -6.2415625 97.19945312 -6.9375 97.1875 C-6.9375 96.5275 -6.9375 95.8675 -6.9375 95.1875 C-7.7728125 95.496875 -7.7728125 95.496875 -8.625 95.8125 C-12.82915448 96.49425478 -16.26383064 94.02433468 -19.9375 92.1875 C-22.2621622 91.16605752 -24.59889922 90.17690802 -26.9375 89.1875 C-26.9375 88.5275 -26.9375 87.8675 -26.9375 87.1875 C-28.4225 86.6925 -28.4225 86.6925 -29.9375 86.1875 C-32.625 84.25 -32.625 84.25 -34.9375 82.1875 C-34.9375 81.5275 -34.9375 80.8675 -34.9375 80.1875 C-35.5975 80.1875 -36.2575 80.1875 -36.9375 80.1875 C-37.22625 79.383125 -37.515 78.57875 -37.8125 77.75 C-38.67012568 75.0548532 -38.67012568 75.0548532 -40.9375 74.1875 C-42.15625 72.18359375 -42.15625 72.18359375 -43.4375 69.625 C-43.8603125 68.79871094 -44.283125 67.97242188 -44.71875 67.12109375 C-47.54409236 60.32034979 -48.25984448 54.15164903 -48.1875 46.875 C-48.19523437 46.07771484 -48.20296875 45.28042969 -48.2109375 44.45898438 C-48.19772202 40.53068315 -48.16230021 38.52470031 -45.9375 35.1875 C-45.793125 34.424375 -45.64875 33.66125 -45.5 32.875 C-44.82469649 29.64854988 -43.48614547 27.08279371 -41.9375 24.1875 C-41.2775 24.1875 -40.6175 24.1875 -39.9375 24.1875 C-39.9375 22.8675 -39.9375 21.5475 -39.9375 20.1875 C-38.0625 17.9375 -38.0625 17.9375 -35.9375 16.1875 C-35.2775 16.1875 -34.6175 16.1875 -33.9375 16.1875 C-33.9375 15.5275 -33.9375 14.8675 -33.9375 14.1875 C-33.2775 14.1875 -32.6175 14.1875 -31.9375 14.1875 C-31.9375 13.5275 -31.9375 12.8675 -31.9375 12.1875 C-26.52573529 8.1875 -26.52573529 8.1875 -23.9375 8.1875 C-23.6075 7.1975 -23.2775 6.2075 -22.9375 5.1875 C-21.125 4.625 -21.125 4.625 -18.9375 4.1875 C-18.2775 3.81625 -17.6175 3.445 -16.9375 3.0625 C-14.49811193 1.99526772 -13.39651654 2.30927981 -10.9375 3.1875 C-10.9375 2.5275 -10.9375 1.8675 -10.9375 1.1875 C-7.2560193 -0.03966023 -3.83339238 0.00343186 0 0 Z " fill="#FBFBFA" transform="translate(409.9375,88.8125)"/>
<path d="M0 0 C0.99 0.33 1.98 0.66 3 1 C3 1.66 3 2.32 3 3 C4.32 3 5.64 3 7 3 C8.8125 4.625 8.8125 4.625 11 7 C12.13912622 7.94563827 13.28558111 8.88248756 14.4375 9.8125 C19.40877188 14.0370143 22.88016325 18.80355411 25 25 C25.5878125 26.3303125 25.5878125 26.3303125 26.1875 27.6875 C26.455625 28.450625 26.72375 29.21375 27 30 C26.505 30.99 26.505 30.99 26 32 C26.66 32 27.32 32 28 32 C30.00014864 42.51691062 29.96158808 52.9781254 26 63 C25.34 63 24.68 63 24 63 C23.62875 64.8253125 23.62875 64.8253125 23.25 66.6875 C22.28206931 70.57996414 20.87979712 73.12020288 18 76 C17.34 76 16.68 76 16 76 C15.731875 76.639375 15.46375 77.27875 15.1875 77.9375 C14 80 14 80 11 81 C10.21625 81.825 9.4325 82.65 8.625 83.5 C5.9028844 86.09249105 4.66070817 86.68622501 1 87 C1 87.66 1 88.32 1 89 C0.46375 89.12375 -0.0725 89.2475 -0.625 89.375 C-3.05395313 89.96219342 -3.05395313 89.96219342 -5.5 91 C-15.17260912 93.76360261 -24.2408556 92.90460721 -34 91 C-34 90.34 -34 89.68 -34 89 C-35.65 89 -37.3 89 -39 89 C-39 88.34 -39 87.68 -39 87 C-39.7425 86.896875 -40.485 86.79375 -41.25 86.6875 C-44.1973519 85.95066203 -45.78383074 85.05200858 -48 83 C-48 82.34 -48 81.68 -48 81 C-48.87978516 80.86658203 -48.87978516 80.86658203 -49.77734375 80.73046875 C-54.88082623 79.05322583 -58.27068947 73.32838703 -60.75 68.8125 C-61.1625 67.884375 -61.575 66.95625 -62 66 C-62.5775 65.13375 -63.155 64.2675 -63.75 63.375 C-65 61 -65 61 -64.6875 58.6875 C-64.460625 58.130625 -64.23375 57.57375 -64 57 C-64.66 57 -65.32 57 -66 57 C-66.91470012 52.31673539 -67.18302799 47.75821878 -67.1875 43 C-67.19974609 42.31421875 -67.21199219 41.6284375 -67.22460938 40.921875 C-67.23713365 36.54672764 -66.60393777 33.06015244 -65 29 C-64.62875 28.05125 -64.2575 27.1025 -63.875 26.125 C-63.58625 25.42375 -63.2975 24.7225 -63 24 C-62.34 24 -61.68 24 -61 24 C-61.33 23.01 -61.66 22.02 -62 21 C-60.41796875 18.51953125 -60.41796875 18.51953125 -58.1875 15.8125 C-57.45917969 14.91144531 -56.73085938 14.01039063 -55.98046875 13.08203125 C-55.32691406 12.39496094 -54.67335938 11.70789063 -54 11 C-53.34 11 -52.68 11 -52 11 C-51.67 10.01 -51.34 9.02 -51 8 C-49.33333333 7.33333333 -47.66666667 6.66666667 -46 6 C-45.67 5.01 -45.34 4.02 -45 3 C-43.14453125 1.90234375 -43.14453125 1.90234375 -40.8125 0.9375 C-39.9978125 0.59976562 -39.183125 0.26203125 -38.34375 -0.0859375 C-25.57317768 -5.0664607 -12.59860576 -5.81474112 0 0 Z " fill="#FBFBFA" transform="translate(429,340)"/>
<path d="M0 0 C0.33 0 0.66 0 1 0 C0.67 99.33 0.34 198.66 0 301 C4.95 301 9.9 301 15 301 C14.67 301.66 14.34 302.32 14 303 C9.05 302.67 4.1 302.34 -1 302 C-1.17312432 264.39352531 -1.33593211 226.78702078 -1.48431293 189.18043997 C-1.50183488 184.74187504 -1.51944491 180.30331046 -1.53710938 175.86474609 C-1.54062461 174.98109798 -1.54413985 174.09744987 -1.5477616 173.18702455 C-1.60490962 158.87416063 -1.66919438 144.5613372 -1.736111 130.24851601 C-1.80460146 115.56513219 -1.86543552 100.8817311 -1.91914403 86.1982857 C-1.95253394 77.13589764 -1.9919144 68.07357609 -2.03892837 59.01124831 C-2.07058429 52.79910041 -2.0948114 46.58695138 -2.11317255 40.37475006 C-2.12399024 36.78923586 -2.13810634 33.20381374 -2.16103554 29.6183548 C-2.18580436 25.73185399 -2.19494176 21.84540613 -2.20254517 17.95883179 C-2.2122618 16.82458814 -2.22197843 15.69034449 -2.2319895 14.52172983 C-2.22948688 9.2875143 -2.14145818 4.88563855 0 0 Z " fill="#B2B2B3" transform="translate(198,131)"/>
<path d="M0 0 C4.53520461 5.12675304 4.14852107 11.02446269 4.13371277 17.5526123 C4.13597833 18.29262844 4.13824388 19.03264457 4.14057809 19.79508543 C4.14688591 22.26379698 4.14609081 24.73245318 4.14526367 27.20117188 C4.1482571 28.97555105 4.15166006 30.74992958 4.15544128 32.52430725 C4.16426503 37.33618831 4.16661867 42.14805159 4.16725707 46.95993996 C4.16796829 49.96682037 4.17010395 52.97369627 4.17275429 55.98057556 C4.18200107 66.47191657 4.18608985 76.96324489 4.18530273 87.45458984 C4.18470154 97.23281158 4.19526317 107.01097821 4.2110464 116.789186 C4.22411933 125.18763536 4.22948676 133.5860667 4.22884732 141.98452616 C4.22859234 146.99922022 4.23144402 152.01386527 4.24202538 157.02854919 C4.25170262 161.74321463 4.25178809 166.45778412 4.24450874 171.17245293 C4.24346256 172.90182574 4.24582778 174.63120452 4.2518692 176.36056709 C4.25958714 178.7229535 4.25494578 181.08500842 4.24723816 183.4473877 C4.25238172 184.13007957 4.25752529 184.81277144 4.26282471 185.51615095 C4.23266301 189.70540119 3.51845194 193.10116532 2 197 C1.67 197 1.34 197 1 197 C1.00138269 195.61377142 1.00138269 195.61377142 1.00279331 194.19953823 C1.02504098 171.66223545 1.04144855 149.1249341 1.05181217 126.58762264 C1.05695777 115.68853807 1.06396725 104.78946076 1.07543945 93.89038086 C1.08543948 84.38536227 1.09186604 74.88034896 1.09408849 65.37532526 C1.0953866 60.34741313 1.09841505 55.31951608 1.10573006 50.29160881 C1.11257437 45.54829297 1.11460004 40.80499825 1.11310768 36.06167793 C1.11338026 34.33125315 1.11533506 32.60082758 1.11920547 30.8704071 C1.14117343 20.53180717 0.84041627 10.30774056 0 0 Z " fill="#D7D9D9" transform="translate(329,123)"/>
<path d="M0 0 C0.99 0.33 1.98 0.66 3 1 C3 1.66 3 2.32 3 3 C0.35329036 2.53293359 -2.00458275 1.9981311 -4.5 0.98046875 C-9.32432418 -0.37098813 -13.88909706 -0.32918642 -18.875 -0.3125 C-19.83019531 -0.32861328 -20.78539062 -0.34472656 -21.76953125 -0.36132812 C-27.9299753 -0.3655534 -32.34118351 0.60101628 -38 3 C-38.99 3 -39.98 3 -41 3 C-41 2.34 -41 1.68 -41 1 C-40.37351562 0.79503906 -39.74703125 0.59007812 -39.1015625 0.37890625 C-38.28429687 0.10949219 -37.46703125 -0.15992188 -36.625 -0.4375 C-35.81289063 -0.70433594 -35.00078125 -0.97117187 -34.1640625 -1.24609375 C-31.98968201 -1.95179729 -31.98968201 -1.95179729 -30 -3 C-19.73683148 -5.30921292 -9.49614335 -4.38283539 0 0 Z " fill="#939392" transform="translate(429,340)"/>
<path d="M0 0 C0.33 0 0.66 0 1 0 C0.67 23.76 0.34 47.52 0 72 C-0.33 72 -0.66 72 -1 72 C-1.17733172 63.49849629 -1.34326027 54.99687799 -1.49477577 46.49487877 C-1.56549147 42.54674456 -1.64008131 38.598764 -1.72363281 34.65087891 C-1.80417269 30.83847492 -1.8743949 27.02600575 -1.93757248 23.21327591 C-1.96342636 21.76121689 -1.99295024 20.30921827 -2.02626419 18.85731125 C-2.07241527 16.81816338 -2.10531928 14.77918785 -2.13525391 12.73974609 C-2.15746002 11.58058685 -2.17966614 10.42142761 -2.20254517 9.22714233 C-1.98996202 5.84006541 -1.21360636 3.15628792 0 0 Z " fill="#B2B3B4" transform="translate(198,131)"/>
<path d="M0 0 C0.71607422 -0.01224609 1.43214844 -0.02449219 2.16992188 -0.03710938 C6.03136473 -0.04784555 8.74435313 0.19507925 12.0625 2.1875 C13.09375 2.331875 14.125 2.47625 15.1875 2.625 C16.13625 2.810625 17.085 2.99625 18.0625 3.1875 C18.7225 4.1775 19.3825 5.1675 20.0625 6.1875 C14.46425073 5.29686943 14.46425073 5.29686943 12.13525391 4.6628418 C8.29297111 3.78169638 4.36283491 3.99712535 0.4375 4 C-0.45807617 3.99935547 -1.35365234 3.99871094 -2.27636719 3.99804688 C-8.40385531 4.04708461 -13.99425647 4.60263506 -19.9375 6.1875 C-18.25 4.125 -18.25 4.125 -15.9375 2.1875 C-13.1875 2.4375 -13.1875 2.4375 -10.9375 3.1875 C-10.9375 2.5275 -10.9375 1.8675 -10.9375 1.1875 C-7.2560193 -0.03966023 -3.83339238 0.00343186 0 0 Z " fill="#C3C2C2" transform="translate(409.9375,88.8125)"/>
<path d="M0 0 C-0.66 0 -1.32 0 -2 0 C-2.33 0.66 -2.66 1.32 -3 2 C-5.31470912 2.72870472 -7.6505947 3.39239518 -10 4 C-10.99 4.33 -11.98 4.66 -13 5 C-16.12063575 5.25074502 -19.24531766 5.23120311 -22.375 5.25 C-23.22578125 5.270625 -24.0765625 5.29125 -24.953125 5.3125 C-29.87955332 5.34319426 -32.92196056 5.04878283 -37 2 C-39.19130534 1.30420546 -39.19130534 1.30420546 -41 1 C-41 0.67 -41 0.34 -41 0 C-39.02 0 -37.04 0 -35 0 C-35 0.66 -35 1.32 -35 2 C-30.79114753 1.88968914 -26.58315446 1.75916008 -22.375 1.625 C-21.18519531 1.5940625 -19.99539063 1.563125 -18.76953125 1.53125 C-17.61582031 1.49257813 -16.46210938 1.45390625 -15.2734375 1.4140625 C-14.21560059 1.3826416 -13.15776367 1.3512207 -12.06787109 1.31884766 C-8.92571849 1.10700877 -8.92571849 1.10700877 -5.79541016 -0.08837891 C-3 -1 -3 -1 0 0 Z " fill="#BABAB9" transform="translate(431,304)"/>
<path d="M0 0 C0 0.66 0 1.32 0 2 C0.66 2.33 1.32 2.66 2 3 C0.948125 2.83757812 -0.10375 2.67515625 -1.1875 2.5078125 C-7.11314698 1.76971475 -13.0374049 1.85471906 -19 1.875 C-20.13695313 1.87113281 -21.27390625 1.86726563 -22.4453125 1.86328125 C-28.39258154 1.87018063 -34.12059162 2.09215018 -40 3 C-39.34 2.67 -38.68 2.34 -38 2 C-38 1.34 -38 0.68 -38 0 C-24.95600259 -2.3412303 -13.04399741 -2.3412303 0 0 Z " fill="#BEBCBB" transform="translate(131,300)"/>
<path d="M0 0 C0.33 0 0.66 0 1 0 C1 12.54 1 25.08 1 38 C-2 35 -2 35 -2.125 31.0625 C-2.09664062 30.35222656 -2.06828125 29.64195312 -2.0390625 28.91015625 C-1.91574541 26.96539822 -1.91574541 26.96539822 -2.5 25 C-4.33309941 17.66760235 -2.81263789 8.25055155 -1 1 C-0.67 0.67 -0.34 0.34 0 0 Z " fill="#B3B6B4" transform="translate(47,347)"/>
<path d="M0 0 C1.13262093 3.3978628 0.69815752 5.5366278 0 9 C-0.14156928 10.91042776 -0.24474702 12.82395604 -0.31640625 14.73828125 C-0.35830078 15.80498047 -0.40019531 16.87167969 -0.44335938 17.97070312 C-0.50233398 19.62489258 -0.50233398 19.62489258 -0.5625 21.3125 C-0.60568359 22.43462891 -0.64886719 23.55675781 -0.69335938 24.71289062 C-0.79914787 27.47514569 -0.90123672 30.2374863 -1 33 C-1.66 32.67 -2.32 32.34 -3 32 C-4.4073098 27.4284841 -4.18369682 22.61376259 -4.1875 17.875 C-4.19974609 17.06417969 -4.21199219 16.25335938 -4.22460938 15.41796875 C-4.22654297 14.63808594 -4.22847656 13.85820312 -4.23046875 13.0546875 C-4.23457764 12.34812012 -4.23868652 11.64155273 -4.24291992 10.91357422 C-4 9 -4 9 -2 6 C-1.64386903 4.33805547 -1.30791692 2.671549 -1 1 C-0.67 0.67 -0.34 0.34 0 0 Z " fill="#C8C9C8" transform="translate(366,118)"/>
<path d="M0 0 C1.89551022 -0.05441656 3.7914792 -0.09298035 5.6875 -0.125 C6.74324219 -0.14820313 7.79898437 -0.17140625 8.88671875 -0.1953125 C12.05160659 0.00323755 14.12893352 0.72018562 17 2 C18.99673484 2.35236497 20.99650739 2.68834559 23 3 C23.66 3.33 24.32 3.66 25 4 C25 4.66 25 5.32 25 6 C23.74316406 5.68289062 22.48632812 5.36578125 21.19140625 5.0390625 C15.7809898 3.83674773 10.46328128 3.55957725 4.9375 3.375 C3.97650391 3.33632812 3.01550781 3.29765625 2.02539062 3.2578125 C-0.31622814 3.16461374 -2.65786037 3.07880815 -5 3 C-4.67 2.34 -4.34 1.68 -4 1 C-2.02 1.495 -2.02 1.495 0 2 C0 1.34 0 0.68 0 0 Z " fill="#BABCBA" transform="translate(404,212)"/>
<path d="M0 0 C1.79232337 0.30871122 3.58384321 0.62209064 5.375 0.9375 C6.87160156 1.19853516 6.87160156 1.19853516 8.3984375 1.46484375 C11 2 11 2 13 3 C15.10528933 3.08543895 17.21331157 3.10714725 19.3203125 3.09765625 C21.20556641 3.09282227 21.20556641 3.09282227 23.12890625 3.08789062 C24.44761719 3.07951172 25.76632813 3.07113281 27.125 3.0625 C28.46484211 3.05748489 29.804686 3.05292201 31.14453125 3.04882812 C34.42973206 3.03701086 37.71484397 3.02053617 41 3 C36.69614059 7.30385941 28.69829122 6.1826714 22.875 6.1875 C22.08996094 6.19974609 21.30492188 6.21199219 20.49609375 6.22460938 C16.1572978 6.23558441 12.98556922 5.8909635 9 4 C7.96875 3.855625 6.9375 3.71125 5.875 3.5625 C2.73145456 2.9474585 2.06524308 2.29131998 0 0 Z " fill="#CDCDCD" transform="translate(87,428)"/>
<path d="M0 0 C0.66 0 1.32 0 2 0 C1.85950482 1.47968324 1.71245174 2.95874516 1.5625 4.4375 C1.48128906 5.26121094 1.40007812 6.08492188 1.31640625 6.93359375 C1 9 1 9 0 10 C-0.15655027 11.48638992 -0.25066943 12.97949127 -0.31640625 14.47265625 C-0.35830078 15.37177734 -0.40019531 16.27089844 -0.44335938 17.19726562 C-0.48267578 18.14279297 -0.52199219 19.08832031 -0.5625 20.0625 C-0.60568359 21.01189453 -0.64886719 21.96128906 -0.69335938 22.93945312 C-0.79979276 25.29281353 -0.90181008 27.64628354 -1 30 C-0.34 30 0.32 30 1 30 C1.66 33.3 2.32 36.6 3 40 C2.01 39.67 1.02 39.34 0 39 C-1.17755913 36.05610218 -1.03348696 35.10046087 0 32 C-0.66 32 -1.32 32 -2 32 C-2.91470012 27.31673539 -3.18302799 22.75821878 -3.1875 18 C-3.19974609 17.31421875 -3.21199219 16.6284375 -3.22460938 15.921875 C-3.23713441 11.54646357 -2.57793 8.06781954 -1 4 C-0.65023242 2.67088318 -0.30903983 1.33917261 0 0 Z " fill="#B7B8B8" transform="translate(365,365)"/>
<path d="M0 0 C2.5304183 3.79562745 2.29505701 6.85694114 2.25 11.25 C2.25773438 11.98863281 2.26546875 12.72726562 2.2734375 13.48828125 C2.25638952 18.32138382 1.51745669 22.36835981 0 27 C-0.185625 27.71929687 -0.37125 28.43859375 -0.5625 29.1796875 C-0.98146975 30.80319529 -1.48898342 32.40307318 -2 34 C-2.99 34.495 -2.99 34.495 -4 35 C-3.53087176 30.77784586 -2.95152673 26.70235136 -2 22.5625 C-0.44088117 15.15086797 -0.33264286 7.54574063 0 0 Z " fill="#C9C9C9" transform="translate(178,357)"/>
<path d="M0 0 C0.99 0.33 1.98 0.66 3 1 C-0.85733202 5.61941889 -4.75201574 9.867882 -9.421875 13.67578125 C-11.04352701 15.0365239 -12.52391857 16.48390431 -14 18 C-14 13.92699831 -12.41547466 12.22063289 -10 9 C-6.6 6 -6.6 6 -4 6 C-3.67 5.01 -3.34 4.02 -3 3 C-1.4375 1.3125 -1.4375 1.3125 0 0 Z " fill="#D1D0CF" transform="translate(70,312)"/>
<path d="M0 0 C2.52113092 -0.05447822 5.0410585 -0.09389852 7.5625 -0.125 C8.26697266 -0.14175781 8.97144531 -0.15851563 9.69726562 -0.17578125 C14.48298764 -0.21988929 18.40089799 0.5265013 23 2 C25.32787927 2.36950465 27.66045145 2.71352467 30 3 C30 3.66 30 4.32 30 5 C28.9275 4.85691406 27.855 4.71382813 26.75 4.56640625 C21.18036546 3.87020193 15.59227149 3.40993845 10 2.9375 C8.40865234 2.80118164 8.40865234 2.80118164 6.78515625 2.66210938 C4.19021916 2.44002016 1.59516977 2.21935059 -1 2 C-0.67 1.34 -0.34 0.68 0 0 Z " fill="#C5C5C3" transform="translate(257,74)"/>
<path d="M0 0 C9.24 0 18.48 0 28 0 C27.01 1.485 27.01 1.485 26 3 C23.625 3.125 23.625 3.125 21 3 C20.39414062 3.16113281 19.78828125 3.32226562 19.1640625 3.48828125 C16.63030544 4.08741875 14.35060208 4.09671845 11.75 4.0625 C10.85796875 4.05347656 9.9659375 4.04445312 9.046875 4.03515625 C8.37140625 4.02355469 7.6959375 4.01195312 7 4 C7 3.34 7 2.68 7 2 C6.401875 2.226875 5.80375 2.45375 5.1875 2.6875 C4.465625 2.790625 3.74375 2.89375 3 3 C2.01 2.01 1.02 1.02 0 0 Z " fill="#A5A6A6" transform="translate(396,182)"/>
<path d="M0 0 C0.66 0.33 1.32 0.66 2 1 C3.01123788 5.32835576 3.16319871 9.56744529 3.1875 14 C3.20167969 15.175625 3.21585937 16.35125 3.23046875 17.5625 C2.99650893 21.05207025 2.23393737 23.74390672 1 27 C0.65023242 28.32911682 0.30903983 29.66082739 0 31 C-0.66 31 -1.32 31 -2 31 C-1.85950482 29.52031676 -1.71245174 28.04125484 -1.5625 26.5625 C-1.48128906 25.73878906 -1.40007812 24.91507813 -1.31640625 24.06640625 C-1 22 -1 22 0 21 C0.08685603 19.43827255 0.10702219 17.87270656 0.09765625 16.30859375 C0.09443359 15.36435547 0.09121094 14.42011719 0.08789062 13.44726562 C0.07951172 12.45404297 0.07113281 11.46082031 0.0625 10.4375 C0.05798828 9.44041016 0.05347656 8.44332031 0.04882812 7.41601562 C0.03700007 4.94395151 0.02051849 2.47200482 0 0 Z " fill="#C6C6C6" transform="translate(455,125)"/>
<path d="M0 0 C0.66 0 1.32 0 2 0 C3.125 3.75 3.125 3.75 2 6 C2.66 6 3.32 6 4 6 C4.79036103 10.9270087 5.18929412 15.68432375 5.25 20.6875 C5.28867187 22.61142578 5.28867187 22.61142578 5.328125 24.57421875 C4.97635492 28.24686588 4.27381451 29.25528826 2 32 C2.01047363 31.36497559 2.02094727 30.72995117 2.03173828 30.07568359 C2.07352467 27.1754966 2.09939771 24.27537318 2.125 21.375 C2.14175781 20.37597656 2.15851563 19.37695312 2.17578125 18.34765625 C2.21059187 13.09125273 1.93645539 8.95549607 0 4 C0 2.68 0 1.36 0 0 Z " fill="#BDBCBF" transform="translate(453,242)"/>
<path d="M0 0 C7.92 0.33 15.84 0.66 24 1 C16.63616084 5.90922611 8.18431659 3.50960718 0 2 C0 1.34 0 0.68 0 0 Z " fill="#AAA9AA" transform="translate(395,429)"/>
<path d="M0 0 C0.66 0 1.32 0 2 0 C2.8866597 4.58225735 3.16412757 8.95986245 3.1875 13.625 C3.20167969 14.91664063 3.21585937 16.20828125 3.23046875 17.5390625 C3.01978565 20.70287989 2.68453393 22.37665467 1 25 C0.67 25 0.34 25 0 25 C0 16.75 0 8.5 0 0 Z " fill="#B7B7B7" transform="translate(455,372)"/>
<path d="M0 0 C0 0.66 0 1.32 0 2 C-0.556875 2.20625 -1.11375 2.4125 -1.6875 2.625 C-3.98064882 3.98849389 -4.95369269 5.05792637 -6.5625 7.125 C-7.366875 8.07375 -8.17125 9.0225 -9 10 C-9.99 10 -10.98 10 -12 10 C-12.66 11.32 -13.32 12.64 -14 14 C-14.66 13.34 -15.32 12.68 -16 12 C-14.71034824 10.62437146 -13.37310707 9.29233607 -12 8 C-11.34 8 -10.68 8 -10 8 C-10 7.34 -10 6.68 -10 6 C-9.34 6 -8.68 6 -8 6 C-8 5.34 -8 4.68 -8 4 C-2.58823529 0 -2.58823529 0 0 0 Z " fill="#A7A7A4" transform="translate(386,97)"/>
<path d="M0 0 C-1.70370427 2.08230522 -2.63007215 2.92350644 -5.3046875 3.4765625 C-6.57699219 3.55003906 -6.57699219 3.55003906 -7.875 3.625 C-11.33040652 3.87253643 -14.61675208 4.21057549 -18 5 C-18 4.34 -18 3.68 -18 3 C-15.93918639 2.49309416 -13.87626474 1.99475381 -11.8125 1.5 C-10.66394531 1.2215625 -9.51539063 0.943125 -8.33203125 0.65625 C-5.43181171 0.08504615 -2.93903615 -0.13283779 0 0 Z " fill="#BEBFBE" transform="translate(232,428)"/>
<path d="M0 0 C0.66 0.33 1.32 0.66 2 1 C1.01 2.485 1.01 2.485 0 4 C-0.66 4 -1.32 4 -2 4 C-2.28875 4.598125 -2.5775 5.19625 -2.875 5.8125 C-4 8 -4 8 -6 11 C-6.66 11 -7.32 11 -8 11 C-8.66 12.65 -9.32 14.3 -10 16 C-10.66 15.67 -11.32 15.34 -12 15 C-10.68 12.69 -9.36 10.38 -8 8 C-7.34 8 -6.68 8 -6 8 C-5.67 7.01 -5.34 6.02 -5 5 C-4.34 5 -3.68 5 -3 5 C-3 4.34 -3 3.68 -3 3 C-2.34 3 -1.68 3 -1 3 C-0.67 2.01 -0.34 1.02 0 0 Z " fill="#B7B6B5" transform="translate(219,91)"/>
<path d="M0 0 C0.33 0 0.66 0 1 0 C1 4.29 1 8.58 1 13 C0.01 13.33 -0.98 13.66 -2 14 C-2.1799928 8.78020872 -1.97094808 4.92737019 0 0 Z " fill="#CACBCA" transform="translate(198,131)"/>
<path d="M0 0 C2.96638962 3.95518615 3.61535854 5.28814217 4 10 C3.5625 12.875 3.5625 12.875 3 15 C2.34 15 1.68 15 1 15 C0.67 10.05 0.34 5.1 0 0 Z " fill="#C0C0C0" transform="translate(329,123)"/>
<path d="M0 0 C0.99 0 1.98 0 3 0 C2.67 0.99 2.34 1.98 2 3 C0.41913952 3.36504603 -1.16483907 3.71660506 -2.75 4.0625 C-3.63171875 4.25972656 -4.5134375 4.45695312 -5.421875 4.66015625 C-7.98679028 4.99825872 -9.57091639 4.81158635 -12 4 C-8.13178328 1.26949408 -5.69282386 0.78668982 -1 1 C-0.67 0.67 -0.34 0.34 0 0 Z " fill="#C4C3C1" transform="translate(252,75)"/>
<path d="M0 0 C0.66 0 1.32 0 2 0 C2 0.66 2 1.32 2 2 C2.99 2 3.98 2 5 2 C5 2.66 5 3.32 5 4 C5.598125 4.103125 6.19625 4.20625 6.8125 4.3125 C9.28243264 5.08876455 10.32251235 6.07088921 12 8 C11.67 8.66 11.34 9.32 11 10 C8.5 8.625 8.5 8.625 6 7 C6 6.34 6 5.68 6 5 C4.02 4.34 2.04 3.68 0 3 C0 2.01 0 1.02 0 0 Z " fill="#A1A09F" transform="translate(432,95)"/>
<path d="M0 0 C1.75211782 0.25677589 3.50167936 0.53102953 5.25 0.8125 C6.22453125 0.96332031 7.1990625 1.11414063 8.203125 1.26953125 C11.12322338 2.03218264 12.74205815 3.03774101 15 5 C4.24281984 4.39425587 4.24281984 4.39425587 0 1 C0 0.67 0 0.34 0 0 Z " fill="#B2B2B1" transform="translate(87,428)"/>
<path d="M0 0 C0 2 0 2 -1.64453125 3.7265625 C-2.35996094 4.35304688 -3.07539063 4.97953125 -3.8125 5.625 C-4.87404297 6.57246094 -4.87404297 6.57246094 -5.95703125 7.5390625 C-8 9 -8 9 -11 9 C-9.625 7 -9.625 7 -8 5 C-7.34 5 -6.68 5 -6 5 C-5.67 4.01 -5.34 3.02 -5 2 C-2 0 -2 0 0 0 Z " fill="#BCBBBA" transform="translate(383,346)"/>
<path d="M0 0 C1.15518918 0.90484792 2.29885406 1.8244206 3.4375 2.75 C4.07558594 3.26046875 4.71367187 3.7709375 5.37109375 4.296875 C7.18810554 6.19667629 7.60423197 7.43586908 8 10 C7.51789063 9.57847656 7.03578125 9.15695313 6.5390625 8.72265625 C5.90742188 8.17480469 5.27578125 7.62695312 4.625 7.0625 C3.99851562 6.51722656 3.37203125 5.97195312 2.7265625 5.41015625 C1.04367666 3.93041376 1.04367666 3.93041376 -1 3 C-0.67 2.01 -0.34 1.02 0 0 Z " fill="#9F9F9F" transform="translate(439,222)"/>
<path d="M0 0 C0.33 0 0.66 0 1 0 C2.51708428 11.52164009 2.51708428 11.52164009 0 17 C-0.33 17 -0.66 17 -1 17 C-0.67 11.39 -0.34 5.78 0 0 Z " fill="#AEAEAE" transform="translate(331,303)"/>
<path d="M0 0 C0.5775 0.37125 1.155 0.7425 1.75 1.125 C-0.23 1.455 -2.21 1.785 -4.25 2.125 C-4.25 2.785 -4.25 3.445 -4.25 4.125 C-6.89 4.785 -9.53 5.445 -12.25 6.125 C-10.93 4.805 -9.61 3.485 -8.25 2.125 C-7.59 2.455 -6.93 2.785 -6.25 3.125 C-6.25 2.465 -6.25 1.805 -6.25 1.125 C-2.80384615 -1.09038462 -2.80384615 -1.09038462 0 0 Z " fill="#B7B6B5" transform="translate(397.25,214.875)"/>
<path d="M0 0 C1.08667969 0.20367187 2.17335938 0.40734375 3.29296875 0.6171875 C4.54013672 0.86855469 4.54013672 0.86855469 5.8125 1.125 C5.8125 1.785 5.8125 2.445 5.8125 3.125 C0.80359914 2.50987182 -4.19382136 1.8532448 -9.1875 1.125 C-5.43214902 -1.37856732 -4.31860586 -0.8358592 0 0 Z " fill="#B1B1AF" transform="translate(281.1875,75.875)"/>
<path d="M0 0 C-2.99879215 1.99919476 -5.59093411 2.91200025 -9 4 C-9.99 4.495 -9.99 4.495 -11 5 C-11.99 4.34 -12.98 3.68 -14 3 C-12.04486839 2.303447 -10.08577524 1.61800435 -8.125 0.9375 C-7.03445312 0.55464844 -5.94390625 0.17179687 -4.8203125 -0.22265625 C-2 -1 -2 -1 0 0 Z " fill="#C3C3C3" transform="translate(142,427)"/>
<path d="M0 0 C0 0.66 0 1.32 0 2 C-2.76264289 2.59732819 -5.16032769 3 -8 3 C-8 3.66 -8 4.32 -8 5 C-9.32 4.34 -10.64 3.68 -12 3 C-10.75336669 2.49166409 -9.50250613 1.99368855 -8.25 1.5 C-7.55390625 1.2215625 -6.8578125 0.943125 -6.140625 0.65625 C-4 0 -4 0 0 0 Z " fill="#CDCECD" transform="translate(245,424)"/>
<path d="M0 0 C0.66 0.66 1.32 1.32 2 2 C-3.75 6 -3.75 6 -6 6 C-6 6.66 -6 7.32 -6 8 C-6.99 8 -7.98 8 -9 8 C-7.20237744 4.40475489 -3.56122467 1.78061233 0 0 Z " fill="#C2C1C0" transform="translate(230,83)"/>
<path d="M0 0 C2 3 2 3 1.828125 5.19140625 C1.63734375 5.97386719 1.4465625 6.75632812 1.25 7.5625 C1.06953125 8.34753906 0.8890625 9.13257813 0.703125 9.94140625 C0 12 0 12 -2 14 C-1.85866501 12.22880197 -1.71176792 10.45804713 -1.5625 8.6875 C-1.48128906 7.70136719 -1.40007812 6.71523438 -1.31640625 5.69921875 C-1 3 -1 3 0 0 Z " fill="#BBBBBA" transform="translate(328,325)"/>
<path d="M0 0 C0.66 0.66 1.32 1.32 2 2 C-0.97 4.97 -3.94 7.94 -7 11 C-7.33 10.01 -7.66 9.02 -8 8 C-6.50260417 6.79557292 -5.00520833 5.59114583 -3.5078125 4.38671875 C-1.74707893 2.87729455 -1.74707893 2.87729455 0 0 Z " fill="#A4A3A4" transform="translate(380,222)"/>
<path d="M0 0 C6.4 0.49230769 6.4 0.49230769 9.4375 3.0625 C10.2109375 4.0215625 10.2109375 4.0215625 11 5 C7.0507432 4.44894091 3.65079826 3.61064629 0 2 C0 1.34 0 0.68 0 0 Z " fill="#A5A3A3" transform="translate(419,90)"/>
<path d="M0 0 C2.88437779 1.29299694 4.87219421 2.65941363 7 5 C6.67 5.99 6.34 6.98 6 8 C4.99403703 7.0479279 3.99538437 6.08812654 3 5.125 C2.443125 4.59132813 1.88625 4.05765625 1.3125 3.5078125 C0 2 0 2 0 0 Z " fill="#ADADAD" transform="translate(440,348)"/>
<path d="M0 0 C2.97 0.99 5.94 1.98 9 3 C9 3.66 9 4.32 9 5 C5.44219804 4.39009109 2.3171411 3.4216319 -1 2 C-0.67 1.34 -0.34 0.68 0 0 Z " fill="#A7A6A5" transform="translate(423,338)"/>
<path d="M0 0 C1.46726798 3.81489674 0.43336419 6.29011622 -1 10 C-1.66 10 -2.32 10 -3 10 C-2.25 2.25 -2.25 2.25 0 0 Z " fill="#A8A7A5" transform="translate(366,118)"/>
<path d="M0 0 C2.81519043 1.40759521 3.61291638 3.22583277 5 6 C4.67 6.99 4.34 7.98 4 9 C1.18167487 7.59083743 0.97406539 5.92219617 0 3 C0 2.01 0 1.02 0 0 Z " fill="#C0C0C0" transform="translate(451,362)"/>
<path d="M0 0 C0.99 0.99 1.98 1.98 3 3 C2.67 3.66 2.34 4.32 2 5 C1.34 5 0.68 5 0 5 C-0.33 6.98 -0.66 8.96 -1 11 C-1.66 10.67 -2.32 10.34 -3 10 C-2.01 6.7 -1.02 3.4 0 0 Z " fill="#BDBDBE" transform="translate(453,274)"/>
<path d="M0 0 C0.66 0 1.32 0 2 0 C1.88637738 1.4800841 1.75877092 2.95910074 1.625 4.4375 C1.52058594 5.67306641 1.52058594 5.67306641 1.4140625 6.93359375 C1.27742188 7.61550781 1.14078125 8.29742187 1 9 C0.01 9.495 0.01 9.495 -1 10 C-2.31223496 6.06329512 -1.24296256 3.87511856 0 0 Z " fill="#A2A19F" transform="translate(365,365)"/>
<path d="M0 0 C3.125 0.375 3.125 0.375 6 1 C6 1.66 6 2.32 6 3 C6.66 3.33 7.32 3.66 8 4 C4.7 3.34 1.4 2.68 -2 2 C-1.34 1.34 -0.68 0.68 0 0 Z " fill="#B3B2B0" transform="translate(125,299)"/>
<path d="M0 0 C7.75 1.875 7.75 1.875 10 3 C10 3.66 10 4.32 10 5 C8.51793505 4.745504 7.03931385 4.47088238 5.5625 4.1875 C4.73878906 4.03667969 3.91507812 3.88585937 3.06640625 3.73046875 C2.38449219 3.48941406 1.70257813 3.24835938 1 3 C0.67 2.01 0.34 1.02 0 0 Z " fill="#A9A9A8" transform="translate(419,213)"/>
<path d="M0 0 C-0.66 0.66 -1.32 1.32 -2 2 C-4.3828125 1.9765625 -4.3828125 1.9765625 -7.125 1.625 C-8.03507812 1.51414063 -8.94515625 1.40328125 -9.8828125 1.2890625 C-10.58148438 1.19367188 -11.28015625 1.09828125 -12 1 C-12 0.67 -12 0.34 -12 0 C-10.56359829 -0.19573608 -9.12580496 -0.38127816 -7.6875 -0.5625 C-6.88699219 -0.66691406 -6.08648437 -0.77132812 -5.26171875 -0.87890625 C-3 -1 -3 -1 0 0 Z " fill="#BCBDBC" transform="translate(424,183)"/>
<path d="M0 0 C-1 1.5625 -1 1.5625 -3 3 C-5.76614782 2.96726452 -8.26030547 2.49404328 -11 2 C-11 1.67 -11 1.34 -11 1 C-7.27569643 0.30710631 -3.78916254 -0.11144596 0 0 Z " fill="#D6D7D6" transform="translate(232,428)"/>
<path d="M0 0 C1.32 0 2.64 0 4 0 C4 0.66 4 1.32 4 2 C5.65 2.33 7.3 2.66 9 3 C9 3.66 9 4.32 9 5 C4.68607774 4.5206753 2.83430453 3.2542015 0 0 Z " fill="#B6B6B5" transform="translate(381,422)"/>
<path d="M0 0 C1.88391785 3.26545761 2.49287967 6.28111761 3 10 C2.01 9.67 1.02 9.34 0 9 C-1.37001429 5.8033 -0.8252404 3.30096158 0 0 Z " fill="#C3C2C2" transform="translate(365,395)"/>
<path d="M0 0 C0.66 0.66 1.32 1.32 2 2 C1.75 5.0625 1.75 5.0625 1 8 C0.01 8.495 0.01 8.495 -1 9 C-0.67 6.03 -0.34 3.06 0 0 Z " fill="#C9C9CA" transform="translate(456,388)"/>
<path d="M0 0 C0.66 0.99 1.32 1.98 2 3 C0.68 5.31 -0.64 7.62 -2 10 C-2.6875 8.375 -2.6875 8.375 -3 6 C-1.5625 2.75 -1.5625 2.75 0 0 Z " fill="#C3C2C2" transform="translate(321,349)"/>
<path d="M0 0 C1.0326802 2.78823655 1.04509293 3.8677274 0.0625 6.75 C-0.288125 7.4925 -0.63875 8.235 -1 9 C-2.1875 7.3125 -2.1875 7.3125 -3 5 C-1.625 2.25 -1.625 2.25 0 0 Z " fill="#B0B0AC" transform="translate(201,120)"/>
<path d="M0 0 C0.33 0 0.66 0 1 0 C1 3.63 1 7.26 1 11 C0.67 11 0.34 11 0 11 C0 7.37 0 3.74 0 0 Z " fill="#FFFFFF" transform="translate(361,379)"/>
<path d="M0 0 C2.64 0 5.28 0 8 0 C8 0.33 8 0.66 8 1 C5.36 1 2.72 1 0 1 C0 0.67 0 0.34 0 0 Z " fill="#FFFFFF" transform="translate(108,434)"/>
<path d="M0 0 C0.33 0 0.66 0 1 0 C1 2.64 1 5.28 1 8 C0.67 8 0.34 8 0 8 C0 5.36 0 2.72 0 0 Z " fill="#FFEBFF" transform="translate(458,380)"/>
<path d="M0 0 C0.33 0 0.66 0 1 0 C1 2.64 1 5.28 1 8 C0.67 8 0.34 8 0 8 C0 5.36 0 2.72 0 0 Z " fill="#E1E1FF" transform="translate(458,133)"/>
<path d="M0 0 C0.33 0 0.66 0 1 0 C1 2.31 1 4.62 1 7 C0.67 7 0.34 7 0 7 C0 4.69 0 2.38 0 0 Z " fill="#FFFFFF" transform="translate(458,257)"/>
<path d="M0 0 C0.33 0 0.66 0 1 0 C1 1.65 1 3.3 1 5 C0.67 5 0.34 5 0 5 C0 3.35 0 1.7 0 0 Z " fill="#E1E1E1" transform="translate(361,138)"/>
<path d="M0 0 C1 4 1 4 1 4 Z " fill="#000000" transform="translate(195,397)"/>
<path d="M0 0 C1 4 1 4 1 4 Z " fill="#FFFFFF" transform="translate(361,132)"/>
<path d="M0 0 C3 1 3 1 3 1 Z " fill="#FFFFFF" transform="translate(199,434)"/>
<path d="M0 0 C3 1 3 1 3 1 Z " fill="#D6D6D6" transform="translate(120,298)"/>
<path d="M0 0 C3 1 3 1 3 1 Z " fill="#D7D7D7" transform="translate(101,298)"/>
<path d="" fill="#AFFFAF" transform="translate(0,0)"/>
<path d="" fill="#FFFFFF" transform="translate(0,0)"/>
<path d="" fill="#FFFFFF" transform="translate(0,0)"/>
<path d="" fill="#FFFFFF" transform="translate(0,0)"/>
<path d="" fill="#FFFFFF" transform="translate(0,0)"/>
<path d="" fill="#FFFFFF" transform="translate(0,0)"/>
<path d="" fill="#FFFFFF" transform="translate(0,0)"/>
<path d="" fill="#FFFFFF" transform="translate(0,0)"/>
<path d="" fill="#FFFFFF" transform="translate(0,0)"/>
<path d="" fill="#FFFFFF" transform="translate(0,0)"/>
<path d="" fill="#FFFFFF" transform="translate(0,0)"/>
<path d="" fill="#FFFFFF" transform="translate(0,0)"/>
<path d="" fill="#FFFFFF" transform="translate(0,0)"/>
<path d="" fill="#FFFFFF" transform="translate(0,0)"/>
<path d="" fill="#FFFFFF" transform="translate(0,0)"/>
<path d="" fill="#FFFFFF" transform="translate(0,0)"/>
</svg>
